<svg xmlns="http://www.w3.org/2000/svg" width="18" height="17" viewBox="0 0 18 17" fill="none">
<path d="M10.6296 10.8007C10.8657 10.8007 11.0636 10.7209 11.2233 10.5611C11.383 10.4014 11.4629 10.2035 11.4629 9.96738C11.4629 9.73127 11.383 9.53335 11.2233 9.37363C11.0636 9.21391 10.8657 9.13404 10.6296 9.13404C10.3934 9.13404 10.1955 9.21391 10.0358 9.37363C9.87608 9.53335 9.79622 9.73127 9.79622 9.96738C9.79622 10.2035 9.87608 10.4014 10.0358 10.5611C10.1955 10.7209 10.3934 10.8007 10.6296 10.8007ZM10.0254 8.34373H11.2337C11.2337 7.98082 11.2675 7.70923 11.3349 7.52896C11.4024 7.34871 11.5512 7.1505 11.7813 6.93432C12.0696 6.65986 12.3292 6.38208 12.56 6.10098C12.7909 5.81989 12.9063 5.46738 12.9063 5.04346C12.9063 4.41182 12.696 3.90669 12.2755 3.52807C11.855 3.14944 11.3012 2.96013 10.6141 2.96013C10.0833 2.96013 9.60962 3.1086 9.19295 3.40554C8.77628 3.7025 8.48628 4.11047 8.32293 4.62944L9.40626 5.08015C9.50017 4.76734 9.65476 4.52677 9.87003 4.35844C10.0853 4.19012 10.3333 4.10596 10.6141 4.10596C10.9388 4.10596 11.2005 4.19541 11.3995 4.37429C11.5985 4.5532 11.6979 4.78516 11.6979 5.07019C11.6979 5.36345 11.5903 5.61844 11.375 5.83515C11.1597 6.05186 10.934 6.27241 10.6979 6.49682C10.4123 6.7613 10.2288 7.01145 10.1474 7.24727C10.0661 7.48308 10.0254 7.84857 10.0254 8.34373ZM5.67439 13.5548C5.19546 13.5548 4.78753 13.3863 4.4506 13.0494C4.11368 12.7125 3.94522 12.3045 3.94522 11.8256V1.94519C3.94522 1.46626 4.11368 1.05833 4.4506 0.721399C4.78753 0.384468 5.19546 0.216003 5.67439 0.216003H15.5548C16.0337 0.216003 16.4417 0.384468 16.7786 0.721399C17.1155 1.05833 17.284 1.46626 17.284 1.94519V11.8256C17.284 12.3045 17.1155 12.7125 16.7786 13.0494C16.4417 13.3863 16.0337 13.5548 15.5548 13.5548H5.67439ZM5.67439 11.8256H15.5548V1.94519H5.67439V11.8256ZM2.44522 16.7839C1.96629 16.7839 1.55836 16.6155 1.22143 16.2786C0.884499 15.9416 0.716034 15.5337 0.716034 15.0548V3.44519H2.44522V15.0548H14.0548V16.7839H2.44522Z" fill="#1C4980"/>
</svg>